<svg width="921" height="249" viewBox="0 0 921 249" fill="none" xmlns="http://www.w3.org/2000/svg">
<path fill-rule="evenodd" clip-rule="evenodd" d="M0.258436 1.064C-0.103564 1.65 -0.0825625 30.562 0.304437 65.314C1.08544 135.51 0.780437 132.635 7.83244 136.302C14.0304 139.525 16.9234 138.383 44.4764 121.836C58.5214 113.401 70.2254 105.967 70.4874 105.315C70.7484 104.663 69.5314 101.13 67.7814 97.464C66.0314 93.798 64.9824 90.439 65.4494 90.001C65.9164 89.562 79.0524 87.605 94.6414 85.652C119.596 82.526 123.72 81.755 129.141 79.203C145.237 71.627 154.691 55.82 153.571 38.36C152.652 24.046 143.201 11.342 127.702 3.58801L120.529 0H60.7234C19.5164 0 0.711436 0.330995 0.258436 1.064ZM140.619 85.36C139.893 86.108 129.623 99.137 117.798 114.314C105.973 129.491 96.0734 141.925 95.7984 141.945C95.5234 141.966 93.5814 139.317 91.4814 136.058C89.3824 132.8 87.1144 129.677 86.4414 129.118C85.5574 128.385 73.6074 135.061 43.4524 153.135C20.4814 166.902 1.83044 178.596 2.00544 179.12C2.19844 179.7 23.6944 180.306 56.8104 180.665C117.355 181.321 117.618 181.3 130.798 174.737C140.242 170.034 151.445 158.663 156.155 149C162.56 135.857 163.192 119.608 157.885 104.508C155.66 98.176 153.095 94.185 147.434 88.25C142.968 83.566 142.539 83.384 140.619 85.36Z" fill="black"/>
<path d="M267.746 248.5V219.36H278.652C282.343 219.36 285.243 220.248 287.352 222.025C289.489 223.773 290.558 226.215 290.558 229.351C290.558 231.405 290.072 233.181 289.101 234.679C288.157 236.15 286.797 237.288 285.021 238.093C283.245 238.87 281.122 239.259 278.652 239.259H269.452L270.826 237.843V248.5H267.746ZM287.644 248.5L280.151 237.926H283.481L291.016 248.5H287.644ZM270.826 238.093L269.452 236.636H278.569C281.483 236.636 283.689 235.998 285.188 234.721C286.714 233.444 287.477 231.654 287.477 229.351C287.477 227.02 286.714 225.216 285.188 223.939C283.689 222.663 281.483 222.025 278.569 222.025H269.452L270.826 220.568V238.093ZM323.222 248.5V219.36H343.203V222.025H326.302V245.836H343.828V248.5H323.222ZM325.969 235.012V232.39H341.371V235.012H325.969ZM384.496 248.75C382.331 248.75 380.25 248.403 378.252 247.709C376.281 246.988 374.755 246.072 373.673 244.962L374.88 242.589C375.907 243.588 377.28 244.434 379.001 245.128C380.749 245.794 382.581 246.127 384.496 246.127C386.328 246.127 387.812 245.905 388.95 245.461C390.116 244.989 390.962 244.365 391.489 243.588C392.045 242.811 392.322 241.951 392.322 241.007C392.322 239.869 391.989 238.953 391.323 238.259C390.685 237.566 389.838 237.025 388.784 236.636C387.729 236.22 386.563 235.859 385.287 235.554C384.01 235.248 382.734 234.929 381.457 234.596C380.18 234.235 379.001 233.764 377.919 233.181C376.864 232.598 376.004 231.835 375.338 230.891C374.699 229.92 374.38 228.657 374.38 227.103C374.38 225.66 374.755 224.342 375.504 223.148C376.281 221.927 377.461 220.956 379.043 220.234C380.625 219.485 382.65 219.111 385.12 219.111C386.758 219.111 388.381 219.346 389.991 219.818C391.6 220.262 392.988 220.887 394.154 221.691L393.113 224.148C391.864 223.315 390.532 222.704 389.117 222.316C387.729 221.927 386.383 221.733 385.079 221.733C383.33 221.733 381.887 221.969 380.749 222.441C379.612 222.913 378.765 223.551 378.21 224.356C377.683 225.133 377.419 226.021 377.419 227.02C377.419 228.158 377.738 229.074 378.377 229.767C379.043 230.461 379.903 231.002 380.958 231.391C382.04 231.779 383.219 232.126 384.496 232.432C385.773 232.737 387.035 233.07 388.284 233.431C389.561 233.791 390.726 234.263 391.781 234.846C392.863 235.401 393.724 236.15 394.362 237.094C395.028 238.037 395.361 239.272 395.361 240.799C395.361 242.214 394.972 243.532 394.195 244.753C393.418 245.947 392.225 246.918 390.615 247.667C389.033 248.389 386.994 248.75 384.496 248.75ZM427.466 248.5V219.36H447.447V222.025H430.546V245.836H448.072V248.5H427.466ZM430.213 235.012V232.39H445.616V235.012H430.213ZM476.044 248.5L489.365 219.36H492.404L505.725 248.5H502.478L490.239 221.15H491.488L479.249 248.5H476.044ZM481.289 240.716L482.205 238.218H499.147L500.063 240.716H481.289ZM535.938 248.5V219.36H546.845C550.536 219.36 553.436 220.248 555.545 222.025C557.682 223.773 558.75 226.215 558.75 229.351C558.75 231.405 558.265 233.181 557.293 234.679C556.35 236.15 554.99 237.288 553.214 238.093C551.438 238.87 549.315 239.259 546.845 239.259H537.645L539.019 237.843V248.5H535.938ZM555.836 248.5L548.343 237.926H551.674L559.208 248.5H555.836ZM539.019 238.093L537.645 236.636H546.761C549.675 236.636 551.882 235.998 553.38 234.721C554.907 233.444 555.67 231.654 555.67 229.351C555.67 227.02 554.907 225.216 553.38 223.939C551.882 222.663 549.675 222.025 546.761 222.025H537.645L539.019 220.568V238.093ZM604.069 248.75C601.877 248.75 599.851 248.389 597.991 247.667C596.132 246.918 594.522 245.877 593.163 244.545C591.803 243.213 590.734 241.645 589.957 239.841C589.208 238.037 588.833 236.067 588.833 233.93C588.833 231.793 589.208 229.823 589.957 228.019C590.734 226.215 591.803 224.647 593.163 223.315C594.55 221.983 596.174 220.956 598.033 220.234C599.892 219.485 601.918 219.111 604.111 219.111C606.22 219.111 608.204 219.471 610.064 220.193C611.923 220.887 613.491 221.941 614.768 223.357L612.811 225.313C611.618 224.092 610.299 223.218 608.856 222.691C607.413 222.136 605.859 221.858 604.194 221.858C602.446 221.858 600.822 222.163 599.323 222.774C597.825 223.357 596.521 224.203 595.41 225.313C594.3 226.395 593.426 227.672 592.788 229.143C592.177 230.586 591.872 232.182 591.872 233.93C591.872 235.679 592.177 237.288 592.788 238.759C593.426 240.202 594.3 241.479 595.41 242.589C596.521 243.671 597.825 244.518 599.323 245.128C600.822 245.711 602.446 246.002 604.194 246.002C605.859 246.002 607.413 245.725 608.856 245.17C610.299 244.615 611.618 243.727 612.811 242.506L614.768 244.462C613.491 245.877 611.923 246.946 610.064 247.667C608.204 248.389 606.206 248.75 604.069 248.75ZM667.635 248.5V219.36H670.673V248.5H667.635ZM646.321 248.5V219.36H649.401V248.5H646.321ZM649.068 235.054V232.348H667.926V235.054H649.068Z" fill="black"/>
<path d="M810.705 179V50.2034H759.635V4.61395H920.568V50.2034H869.498V179H810.705Z" fill="black"/>
<path d="M676.562 182.986C661.947 182.986 647.83 181.325 634.211 178.003C620.593 174.682 609.382 170.364 600.58 165.049L619.513 122.2C627.817 127.016 637.035 130.919 647.166 133.909C657.463 136.732 667.428 138.144 677.06 138.144C682.707 138.144 687.108 137.812 690.264 137.147C693.586 136.317 695.994 135.237 697.489 133.909C698.983 132.414 699.731 130.67 699.731 128.677C699.731 125.522 697.987 123.03 694.499 121.203C691.011 119.377 686.361 117.882 680.548 116.719C674.901 115.391 668.673 114.062 661.864 112.733C655.055 111.239 648.162 109.329 641.187 107.003C634.377 104.678 628.066 101.606 622.253 97.7859C616.607 93.966 612.039 88.9836 608.552 82.8385C605.064 76.5274 603.32 68.7216 603.32 59.421C603.32 48.6257 606.31 38.8268 612.289 30.0245C618.434 21.0561 627.485 13.9145 639.443 8.59992C651.567 3.2853 666.597 0.627991 684.534 0.627991C696.326 0.627991 707.952 1.8736 719.411 4.36483C730.871 6.85606 741.168 10.6759 750.303 15.8245L732.615 58.4245C723.979 54.1064 715.591 50.8678 707.453 48.7087C699.482 46.5496 691.676 45.4701 684.036 45.4701C678.389 45.4701 673.905 45.9684 670.583 46.9648C667.262 47.9613 664.853 49.29 663.359 50.9508C662.03 52.6116 661.366 54.4385 661.366 56.4315C661.366 59.421 663.11 61.8292 666.597 63.6561C670.085 65.3169 674.652 66.7286 680.299 67.8912C686.112 69.0537 692.423 70.2994 699.232 71.628C706.208 72.9567 713.1 74.7836 719.91 77.1087C726.719 79.4339 732.947 82.5064 738.594 86.3263C744.407 90.1461 749.057 95.1286 752.545 101.274C756.032 107.419 757.776 115.058 757.776 124.193C757.776 134.822 754.704 144.621 748.559 153.589C742.58 162.392 733.611 169.533 721.653 175.014C709.696 180.329 694.665 182.986 676.562 182.986Z" fill="black"/>
<path d="M491.799 182.986C477.682 182.986 464.561 180.744 452.437 176.26C440.479 171.775 430.099 165.464 421.297 157.326C412.495 149.022 405.602 139.306 400.62 128.179C395.803 117.051 393.395 104.927 393.395 91.807C393.395 78.5204 395.803 66.3964 400.62 55.435C405.602 44.3075 412.495 34.6748 421.297 26.5368C430.099 18.2327 440.479 11.8385 452.437 7.35431C464.561 2.8701 477.682 0.627991 491.799 0.627991C506.082 0.627991 519.202 2.8701 531.16 7.35431C543.118 11.8385 553.498 18.2327 562.3 26.5368C571.103 34.6748 577.912 44.3075 582.729 55.435C587.711 66.3964 590.202 78.5204 590.202 91.807C590.202 104.927 587.711 117.051 582.729 128.179C577.912 139.306 571.103 149.022 562.3 157.326C553.498 165.464 543.118 171.775 531.16 176.26C519.202 180.744 506.082 182.986 491.799 182.986ZM491.799 135.403C497.279 135.403 502.345 134.407 506.995 132.414C511.812 130.421 515.964 127.598 519.451 123.944C523.105 120.124 525.929 115.557 527.922 110.242C529.914 104.761 530.911 98.6163 530.911 91.807C530.911 84.9976 529.914 78.9356 527.922 73.621C525.929 68.1403 523.105 63.573 519.451 59.9192C515.964 56.0994 511.812 53.1929 506.995 51.1999C502.345 49.207 497.279 48.2105 491.799 48.2105C486.318 48.2105 481.169 49.207 476.353 51.1999C471.703 53.1929 467.551 56.0994 463.897 59.9192C460.409 63.573 457.669 68.1403 455.676 73.621C453.683 78.9356 452.686 84.9976 452.686 91.807C452.686 98.6163 453.683 104.761 455.676 110.242C457.669 115.557 460.409 120.124 463.897 123.944C467.551 127.598 471.703 130.421 476.353 132.414C481.169 134.407 486.318 135.403 491.799 135.403Z" fill="black"/>
<path d="M280.628 182.986C266.511 182.986 253.391 180.744 241.267 176.26C229.309 171.775 218.929 165.464 210.126 157.326C201.324 149.022 194.432 139.306 189.449 128.179C184.633 117.051 182.225 104.927 182.225 91.807C182.225 78.5204 184.633 66.3964 189.449 55.435C194.432 44.3075 201.324 34.6748 210.126 26.5368C218.929 18.2327 229.309 11.8385 241.267 7.35431C253.391 2.8701 266.511 0.627991 280.628 0.627991C294.911 0.627991 308.032 2.8701 319.99 7.35431C331.947 11.8385 342.328 18.2327 351.13 26.5368C359.932 34.6748 366.742 44.3075 371.558 55.435C376.54 66.3964 379.032 78.5204 379.032 91.807C379.032 104.927 376.54 117.051 371.558 128.179C366.742 139.306 359.932 149.022 351.13 157.326C342.328 165.464 331.947 171.775 319.99 176.26C308.032 180.744 294.911 182.986 280.628 182.986ZM280.628 135.403C286.109 135.403 291.174 134.407 295.825 132.414C300.641 130.421 304.793 127.598 308.281 123.944C311.935 120.124 314.758 115.557 316.751 110.242C318.744 104.761 319.74 98.6163 319.74 91.807C319.74 84.9976 318.744 78.9356 316.751 73.621C314.758 68.1403 311.935 63.573 308.281 59.9192C304.793 56.0994 300.641 53.1929 295.825 51.1999C291.174 49.207 286.109 48.2105 280.628 48.2105C275.147 48.2105 269.999 49.207 265.183 51.1999C260.532 53.1929 256.38 56.0994 252.726 59.9192C249.239 63.573 246.498 68.1403 244.505 73.621C242.512 78.9356 241.516 84.9976 241.516 91.807C241.516 98.6163 242.512 104.761 244.505 110.242C246.498 115.557 249.239 120.124 252.726 123.944C256.38 127.598 260.532 130.421 265.183 132.414C269.999 134.407 275.147 135.403 280.628 135.403Z" fill="black"/>
</svg>
